<?xml version="1.0" encoding="UTF-8" standalone="no"?>
<svg width="265px" height="180px" viewBox="0 0 265 180" version="1.1" xmlns="http://www.w3.org/2000/svg" xmlns:xlink="http://www.w3.org/1999/xlink" xmlns:sketch="http://www.bohemiancoding.com/sketch/ns">
    <!-- Generator: Sketch 3.4.3 (16044) - http://www.bohemiancoding.com/sketch -->
    <title>logo_color</title>
    <desc>Created with Sketch.</desc>
    <defs></defs>
    <g id="Page-1" stroke="none" stroke-width="1" fill="none" fill-rule="evenodd" sketch:type="MSPage">
        <g id="logo_color" sketch:type="MSLayerGroup">
            <g id="cube_1" transform="translate(0.000000, 30.000000)" sketch:type="MSShapeGroup">
                <path d="M0,30 L80,60 L160,30 L80,0" id="Shape" fill="#25D7B4"></path>
                <path d="M0,30 L0,120 L80,150 L80,60" id="Shape" fill="#1ABC9C"></path>
                <path d="M160,120 L160,30 L80,60 L80,150" id="Shape" fill="#369985"></path>
            </g>
            <g id="cube_2" transform="translate(175.000000, 55.000000)" sketch:type="MSShapeGroup">
                <path d="M0,18 L45,36 L90,18 L45,0" id="Shape" fill="#FF784D"></path>
                <path d="M0,18 L0,72 L45,90 L45,36" id="Shape" fill="#FF5722"></path>
                <path d="M90,72 L90,18 L45,36 L45,90" id="Shape" fill="#C04821"></path>
            </g>
            <g id="cube_3" transform="translate(150.000000, 0.000000)" sketch:type="MSShapeGroup">
                <path d="M0,10 L25,20 L50,10 L25,0" id="Shape" fill="#5768C8"></path>
                <path d="M0,10 L0,40 L25,50 L25,20" id="Shape" fill="#3F51B5"></path>
                <path d="M50,40 L50,10 L25,20 L25,50" id="Shape" fill="#374487"></path>
            </g>
        </g>
    </g>
</svg>