<svg width="53px" height="36px" viewBox="0 0 53 36" version="1.1" xmlns="http://www.w3.org/2000/svg" xmlns:xlink="http://www.w3.org/1999/xlink" xmlns:sketch="http://www.bohemiancoding.com/sketch/ns">
    <g id="Page-1" stroke="none" stroke-width="1" fill="none" fill-rule="evenodd" sketch:type="MSPage">
        <g id="cube_1" sketch:type="MSLayerGroup" transform="translate(0.000000, 6.000000)">
            <path d="M0,6 L16,12 L32,6 L16,0" id="Shape" fill="#25D7B4" sketch:type="MSShapeGroup"></path>
            <path d="M0,6 L0,24 L16,30 L16,12" id="Shape" fill="#1ABC9C" sketch:type="MSShapeGroup"></path>
            <path d="M32,24 L32,6 L16,12 L16,30" id="Shape" fill="#369985" sketch:type="MSShapeGroup"></path>
        </g>
        <g id="cube_2" sketch:type="MSLayerGroup" transform="translate(35.000000, 11.000000)">
            <path d="M0,3.6 L9,7.2 L18,3.6 L9,0" id="Shape" fill="#FF784D" sketch:type="MSShapeGroup"></path>
            <path d="M0,3.6 L0,14.4 L9,18 L9,7.2" id="Shape" fill="#FF5722" sketch:type="MSShapeGroup"></path>
            <path d="M18,14.4 L18,3.6 L9,7.2 L9,18" id="Shape" fill="#C04821" sketch:type="MSShapeGroup"></path>
        </g>
        <g id="cube_3" sketch:type="MSLayerGroup" transform="translate(30.000000, 0.000000)">
            <path d="M0,2 L5,4 L10,2 L5,0" id="Shape" fill="#5768C8" sketch:type="MSShapeGroup"></path>
            <path d="M0,2 L0,8 L5,10 L5,4" id="Shape" fill="#3F51B5" sketch:type="MSShapeGroup"></path>
            <path d="M10,8 L10,2 L5,4 L5,10" id="Shape" fill="#374487" sketch:type="MSShapeGroup"></path>
        </g>
    </g>
</svg>
