<?xml version="1.0" ?><!DOCTYPE svg  PUBLIC '-//W3C//DTD SVG 1.1//EN'  'http://www.w3.org/Graphics/SVG/1.1/DTD/svg11.dtd'><svg height="100mm" style="shape-rendering:geometricPrecision; text-rendering:geometricPrecision; image-rendering:optimizeQuality; fill-rule:evenodd; clip-rule:evenodd" viewBox="0 0 100 100" width="100mm" xml:space="preserve" xmlns="http://www.w3.org/2000/svg" xmlns:xlink="http://www.w3.org/1999/xlink"><defs><style type="text/css">
   <![CDATA[
    .fil0 {fill:#008DD2}
   ]]>
  </style></defs><g id="Ebene_x0020_1"><path class="fil0" d="M87.4998 50l0 -3.043c0,-6.4765 -0.7508,-12.9488 -0.7508,-12.9488 0,0 -0.7324,-5.5165 -2.9807,-7.9457 -2.8531,-3.1832 -6.049,-3.2031 -7.5144,-3.3826 -10.495,-0.8141 -26.2375,-0.8141 -26.2375,-0.8141l-0.0352 0c0,0 -15.7425,0 -26.2368,0.8141 -1.4654,0.1795 -4.6581,0.1994 -7.5145,3.3826 -2.2462,2.4292 -2.9799,7.9457 -2.9799,7.9457 0,0 -0.7497,6.4723 -0.7497,12.9467l0 3.0451 0 3.0451c0,6.4744 0.7497,12.9467 0.7497,12.9467 0,0 0.7337,5.5165 2.9799,7.9457 2.8564,3.1832 6.0491,3.2031 7.5145,3.3826 10.4943,0.8141 26.2368,0.8141 26.2368,0.8141l0.0352 0c0,0 15.7425,0 26.2375,-0.8141 1.4654,-0.1795 4.6613,-0.1994 7.5144,-3.3826 2.2483,-2.4292 2.9807,-7.9457 2.9807,-7.9457 0,0 0.7508,-6.4723 0.7508,-12.9488l0 -3.043zm-46.8659 -15.6249l0 31.2498 24.9912 -15.6249 -24.9912 -15.6249zm43.0056 -0.0358c-0.2536,-1.7189 -1.0787,-4.9617 -2.1815,-6.1725 -1.7015,-1.8681 -3.1608,-2.142 -5.515,-2.3774 -8.6009,-0.8599 -17.2936,-0.7986 -25.9266,-0.7986l-0.0352 0c-8.6328,0 -17.3252,-0.0613 -25.9259,0.7986 -2.3555,0.2355 -3.8124,0.5082 -5.5152,2.3775 -1.1165,1.2257 -1.9484,4.5382 -2.1901,6.238 -0.4718,4.0952 -0.7247,8.4381 -0.7247,12.55l0 6.0902c0,4.1101 0.2522,8.4562 0.7246,12.5497 0.2417,1.6996 1.0737,5.0125 2.1902,6.2383 1.7028,1.8693 3.1597,2.142 5.5152,2.3775 8.6007,0.8599 17.2931,0.7986 25.9259,0.7986l0.0352 0c8.633,0 17.3257,0.0613 25.9266,-0.7986 2.3542,-0.2354 3.8135,-0.5093 5.515,-2.3774 1.1171,-1.2265 1.9492,-4.5378 2.1911,-6.2384 0.4725,-4.0955 0.7257,-8.4395 0.7257,-12.5518l0 -6.086c0,-2.8856 -0.1437,-5.7853 -0.3661,-8.6622 -0.1017,-1.3149 -0.2754,-2.6495 -0.3692,-3.9555z"/></g></svg>