<?xml version="1.0" ?><!DOCTYPE svg  PUBLIC '-//W3C//DTD SVG 1.1//EN'  'http://www.w3.org/Graphics/SVG/1.1/DTD/svg11.dtd'><svg height="100mm" style="shape-rendering:geometricPrecision; text-rendering:geometricPrecision; image-rendering:optimizeQuality; fill-rule:evenodd; clip-rule:evenodd" viewBox="0 0 100 100" width="100mm" xml:space="preserve" xmlns="http://www.w3.org/2000/svg" xmlns:xlink="http://www.w3.org/1999/xlink"><defs><style type="text/css">
   <![CDATA[
    .fil0 {fill:#008DD2}
   ]]>
  </style></defs><g id="Ebene_x0020_1"><path class="fil0" d="M81.25 30.1237c-2.2979,1.0473 -4.7702,1.7542 -7.3647,2.0703 2.6487,-1.6261 4.6798,-4.2021 5.638,-7.2754 -2.4777,1.5081 -5.2208,2.6021 -8.1425,3.1928 -2.338,-2.555 -5.671,-4.1532 -9.359,-4.1532 -7.0803,0 -12.8214,5.8868 -12.8214,13.149 0,1.029 0.1126,2.0322 0.3323,2.9958 -10.657,-0.5491 -20.1059,-5.783 -26.4306,-13.7383 -1.1038,1.9413 -1.7358,4.1997 -1.7358,6.6115 0,4.5612 2.2633,8.5863 5.7041,10.944 -2.1011,-0.0689 -4.0786,-0.6609 -5.8081,-1.6457 -0.0015,0.0545 -0.0015,0.1107 -0.0015,0.1667 0,6.3696 4.4201,11.6831 10.2863,12.8928 -1.076,0.2993 -2.2087,0.4607 -3.3785,0.4607 -0.8272,0 -1.6303,-0.0822 -2.413,-0.237 1.6328,5.2234 6.3673,9.0263 11.9775,9.1314 -4.3884,3.527 -9.916,5.6297 -15.9242,5.6297 -1.0338,0 -2.0551,-0.0625 -3.0588,-0.1848 5.6758,3.7324 12.4153,5.9078 19.6558,5.9078 23.5863,0 36.4824,-20.0353 36.4824,-37.4114 0,-0.5699 -0.0115,-1.1384 -0.0353,-1.7027 2.5043,-1.8493 4.6788,-4.1668 6.397,-6.804z"/></g></svg>